{"title":"Never Surrender 2009 BRRip H264 LKRG","uid":5565899,"size":2004261512,"categoryP":"video","categoryS":"movies","magnet":"?xt=urn:btih:128bf8504cef5730360c0c45abf69732a70f5ac4&amp;dn=Never+Surrender+2009+BRRip+H264+LKRG&amp;tr=udp%3A%2F%2Ftracker.openbittorrent.com%3A80&amp;tr=udp%3A%2F%2Fopen.demonii.com%3A1337&amp;tr=udp%3A%2F%2Ftracker.coppersurfer.tk%3A6969&amp;tr=udp%3A%2F%2Fexodus.desync.com%3A6969","seeders":0,"leechers":1,"uploader":"DibyaTPB","files":1,"time":1273977720,"description":"never.surrender.2009.lkrg.mp4\n\nFile Size\n\nFormat : MPEG-4\nFormat profile : Base Media\nCodec ID : isom\nFile size : 1.87 GiB\nDuration : 1h 22mn\nOverall bit rate : 3 233 Kbps\n\nVideo\nID : 1\nFormat : AVC\nFormat/Info : Advanced Video Codec\nFormat profile : &lt;a class=&quot;__cf_email__&quot; href=&quot;/cdn-cgi/l/email-protection&quot; data-cfemail=&quot;7b33121c133b374f554a&quot;&gt;[email&amp;#160;protected]&lt;/a&gt;&lt;script cf-hash='f9e31' type=&quot;text/javascript&quot;&gt;\n/* &lt;![CDATA[ */!function(){try{var t=&quot;currentScript&quot;in document?document.currentScript:function(){for(var t=document.getElementsByTagName(&quot;script&quot;),e=t.length;e--;)if(t[e].getAttribute(&quot;cf-hash&quot;))return t[e]}();if(t&amp;&amp;t.previousSibling){var e,r,n,i,c=t.previousSibling,a=c.getAttribute(&quot;data-cfemail&quot;);if(a){for(e=&quot;&quot;,r=parseInt(a.substr(0,2),16),n=2;a.length-n;n+=2)i=parseInt(a.substr(n,2),16)^r,e+=String.fromCharCode(i);e=document.createTextNode(e),c.parentNode.replaceChild(e,c)}}}catch(u){}}();/* ]]&gt; */&lt;/script&gt;\nFormat settings, CABAC : Yes\nFormat settings, ReFrames : 3 frames\nCodec ID : avc1\nCodec ID/Info : Advanced Video Coding\nDuration : 1h 22mn\nBit rate mode : Variable\nBit rate : 3 006 Kbps\nMaximum bit rate : 15.5 Mbps\nWidth : 1 280 pixels\nHeight : 720 pixels\nDisplay aspect ratio : 16:9\nFrame rate mode : Constant\nFrame rate : 25.000 fps\nResolution : 24 bits\nColorimetry : 4:2:0\nScan type : Progressive\nBits/(Pixel*Frame) : 0.130\nStream size : 1.74 GiB (93%)\n\nAudio\nID : 2\nFormat : AAC\nFormat/Info : Advanced Audio Codec\nFormat version : Version 4\nFormat profile : LC\nFormat settings, SBR : No\nCodec ID : 40\nDuration : 1h 22mn\nBit rate mode : Variable\nBit rate : 224 Kbps\nMaximum bit rate : 231 Kbps\nChannel(s) : 2 channels\nChannel positions : L R\nSampling rate : 48.0 KHz\nResolution : 16 bits\nStream size : 132 MiB (7%)\n\nEnglish SRT : N/A\n\nRelease Date:----\n\nLanguage:English\n\nInfo Hash:\n\n\nTracker Info:\nCode: &lt;a href=&quot;\nhttp://nemesis.1337x.org/announce&quot; rel=&quot;nofollow&quot; target=&quot;_NEW&quot;&gt;\nhttp://nemesis.1337x.org/announce&lt;/a&gt;\n &lt;a href=&quot;\nhttp://tracker.openbittorrent.com/announce&quot; rel=&quot;nofollow&quot; target=&quot;_NEW&quot;&gt;\nhttp://tracker.openbittorrent.com/announce&lt;/a&gt;\n &lt;a href=&quot;\nhttp://genesis.1337x.org:1337/announce&quot; rel=&quot;nofollow&quot; target=&quot;_NEW&quot;&gt;\nhttp://genesis.1337x.org:1337/announce&lt;/a&gt;\n &lt;a href=&quot;\nhttp://exodus.1337x.org/announce&quot; rel=&quot;nofollow&quot; target=&quot;_NEW&quot;&gt;\nhttp://exodus.1337x.org/announce&lt;/a&gt;\n\n\n\n\nPlot: From the cage to the big screen, the world's greatest Mixed Martial Arts Champions come together for the first time in a major motion picture...\n\nCast:\nHector Echavarria ... Diego Carter\nPatrick Kilpatrick ... Seifer\nJames Russo ... Jimmy\nSilvia Koys ... Sandra\nAnderson Silva ... Fighter\nGeorges St. Pierre ... Georges\nB.J. Penn\nFileena Bahris ... Club Girl\nJoanne Bahris ... Lady at bar\nCarey A. Campbell ... Bookie\nLateef Crowder ... Marco\nWill C. ... Body Guard\nEamon Glennon ... Richie\nHeath Herring ... Stone\nFabiano Iha ... John\nQuinton 'Rampage' Jackson\nSabrina Machado ... Monique\nTeresa Noreen ... Dream Angel\nDamian Perkins ... Diamond\nJavier Rivas ... Rich man\nCristina Rosas ... Marcela\nGino Salvano ... Scarred Man\nGunter Schlierkamp ... Crusher\nJessica Simons ... Exotic Wealthy Woman\nBrooke Stadler ... Diego's Fan\nCheryl Lynn Stallard ... Celesta\nDavid Michael Toscano ... Waiter\nGiulini Wever ... Dream Angel\nJoe Willand ... Additional Voices (voice)\nDustin Zahursky ... Bill West\n\nGenre: Action | Drama\n\n\n\n\n\n\n\n\n &lt;a href=&quot;\nhttp://www.imdb.com/title/tt1307989/&quot; rel=&quot;nofollow&quot; target=&quot;_NEW&quot;&gt;\nhttp://www.imdb.com/title/tt1307989/&lt;/a&gt;\n\nAnother Quality Upload Brought To ","torrent":{"xt":"urn:btih:128bf8504cef5730360c0c45abf69732a70f5ac4","amp;dn":"Never+Surrender+2009+BRRip+H264+LKRG","amp;tr":["udp%3A%2F%2Ftracker.openbittorrent.com%3A80","udp%3A%2F%2Fopen.demonii.com%3A1337","udp%3A%2F%2Ftracker.coppersurfer.tk%3A6969","udp%3A%2F%2Fexodus.desync.com%3A6969"],"infoHash":"128bf8504cef5730360c0c45abf69732a70f5ac4","infoHashBuffer":{"type":"Buffer","data":[18,139,248,80,76,239,87,48,54,12,12,69,171,246,151,50,167,15,90,196]},"announce":[],"urlList":[]}}